<svg width="50" height="49" viewBox="0 0 50 49" fill="none" xmlns="http://www.w3.org/2000/svg">
<path d="M41.7952 37.818C44.0385 35.2437 45.5986 32.1922 46.3436 28.9214C47.0886 25.6506 46.9965 22.2569 46.0751 19.0272C45.1537 15.7976 43.4302 12.827 41.0502 10.3668C38.6703 7.90653 35.7039 6.02901 32.4021 4.89302C29.1003 3.75702 25.5601 3.39596 22.081 3.84037C18.6019 4.28478 15.2862 5.5216 12.4143 7.4462C9.5425 9.3708 7.19902 11.9266 5.5821 14.8974C3.96518 17.8681 3.12239 21.1665 3.12501 24.5135C3.12623 29.3797 4.92471 34.0901 8.20485 37.818L8.1736 37.8428C8.28298 37.9687 8.40798 38.0762 8.52079 38.1991C8.66141 38.3535 8.81204 38.4971 8.95829 38.6473C9.39579 39.0992 9.84485 39.5341 10.3177 39.9435C10.4606 40.0673 10.6089 40.1836 10.7552 40.3036C11.2552 40.7146 11.7683 41.1039 12.302 41.4676C12.3709 41.5141 12.432 41.5709 12.5014 41.6175V41.5986C16.161 44.0541 20.5266 45.3719 25.0014 45.3719C29.4762 45.3719 33.8419 44.0541 37.5014 41.5986V41.6172C37.5708 41.5706 37.6319 41.5138 37.7008 41.4673C38.2339 41.1036 38.7477 40.7143 39.2477 40.3033C39.3939 40.1841 39.5422 40.067 39.6852 39.9432C40.1578 39.5336 40.607 39.0987 41.0445 38.647C41.1903 38.4971 41.3405 38.3532 41.482 38.1988C41.5944 38.0759 41.7199 37.9684 41.8292 37.8425L41.7952 37.818ZM25 12.5946C26.3907 12.5946 27.7501 12.9878 28.9064 13.7245C30.0626 14.4612 30.9639 15.5083 31.496 16.7334C32.0282 17.9584 32.1675 19.3065 31.8962 20.607C31.6249 21.9075 30.9552 23.1021 29.9719 24.0397C28.9885 24.9774 27.7357 25.6159 26.3717 25.8746C25.0078 26.1333 23.5941 26.0005 22.3093 25.4931C21.0245 24.9856 19.9263 24.1263 19.1537 23.0238C18.3811 21.9212 17.9688 20.625 17.9688 19.299C17.9688 17.5209 18.7095 15.8156 20.0282 14.5583C21.3468 13.301 23.1352 12.5946 25 12.5946ZM12.5111 37.818C12.5381 35.8618 13.3718 33.9943 14.8318 32.6197C16.2918 31.2451 18.2607 30.4739 20.3125 30.473H29.6875C31.7393 30.474 33.7082 31.2452 35.1682 32.6198C36.6282 33.9944 37.4619 35.8618 37.4889 37.818C34.0621 40.7624 29.6128 42.3919 25 42.3919C20.3872 42.3919 15.9379 40.7624 12.5111 37.818Z" fill="black"/>
</svg>
