<svg width="95" height="109" viewBox="0 0 95 109" fill="none" xmlns="http://www.w3.org/2000/svg">
<path d="M47.5 11.6178C21.2601 11.6178 0 33.411 0 60.3089C0 87.2068 21.2601 109 47.5 109C73.7399 109 95 87.2068 95 60.3089C95 33.411 73.7399 11.6178 47.5 11.6178Z" fill="#D9E4D9"/>
<path fill-rule="evenodd" clip-rule="evenodd" d="M48.3065 40.4344C48.3391 40.4348 48.3717 40.435 48.4042 40.435H48.4287H48.4694C59.7122 40.435 68.8265 31.537 68.8265 20.561C68.8265 9.58506 59.7122 0.687103 48.4694 0.687103L48.4287 0.687143L48.4042 0.687103C48.3717 0.687103 48.3391 0.687302 48.3065 0.687719C37.1386 0.773118 28.1122 9.63792 28.1122 20.561C28.1122 31.4841 37.1386 40.3489 48.3065 40.4344ZM64.6291 22.5484H60.5583C60.4475 24.3639 60.1865 26.1076 59.7959 27.7463H63.0011C63.8309 26.15 64.3927 24.3985 64.6291 22.5484ZM60.0691 31.721H58.5124C58.2115 32.4413 57.8821 33.1279 57.5271 33.7762C58.4448 33.1756 59.2963 32.4864 60.0691 31.721ZM55.597 27.7463C56.041 26.1615 56.3492 24.4144 56.4787 22.5484H50.5051V27.7463H55.597ZM50.5051 31.721H54.0344C53.8781 32.0152 53.7164 32.2982 53.5499 32.5691C52.5343 34.2214 51.4794 35.2415 50.5051 35.8204V31.721ZM46.4337 27.7463V22.5484H40.3298C40.4593 24.4144 40.7675 26.1615 41.2115 27.7463H46.4337ZM42.7743 31.721H46.4337V35.8956C45.4238 35.3315 44.3196 34.2953 43.2588 32.5691C43.0923 32.2982 42.9306 32.0152 42.7743 31.721ZM37.0126 27.7463C36.6221 26.1076 36.3612 24.3639 36.2502 22.5484H32.3097C32.546 24.3985 33.1079 26.15 33.9376 27.7463H37.0126ZM36.8697 31.721H38.2961C38.5762 32.3914 38.8808 33.0323 39.2079 33.6407C38.3678 33.0727 37.585 32.4293 36.8697 31.721ZM60.5583 18.5736C60.4475 16.7582 60.1865 15.0144 59.7959 13.3758H63.0011C63.8309 14.9721 64.3927 16.7236 64.6291 18.5736H60.5583ZM60.0691 9.40102H58.5124C58.2115 8.68079 57.8821 7.99425 57.5271 7.34584C58.4448 7.94645 59.2963 8.63572 60.0691 9.40102ZM50.5051 9.40102H54.0344C53.8781 9.10689 53.7164 8.82389 53.5499 8.55304C52.5343 6.90069 51.4794 5.88048 50.5051 5.30161V9.40102ZM55.597 13.3758H50.5051V18.5736H56.4787C56.3492 16.7077 56.041 14.9606 55.597 13.3758ZM46.4337 5.22657V9.40102H42.7743C42.9306 9.10689 43.0923 8.82389 43.2588 8.55304C44.3196 6.8268 45.4238 5.79049 46.4337 5.22657ZM46.4337 13.3758H41.2115C40.7675 14.9606 40.4593 16.7077 40.3298 18.5736H46.4337V13.3758ZM39.2079 7.4814C38.8808 8.0897 38.5762 8.73068 38.2961 9.40102H36.8699C37.585 8.69272 38.3678 8.04946 39.2079 7.4814ZM37.0126 13.3758H33.9376C33.1079 14.9721 32.546 16.7236 32.3097 18.5736H36.2502C36.3612 16.7582 36.6221 15.0144 37.0126 13.3758Z" fill="#A7CF7F"/>
<path fill-rule="evenodd" clip-rule="evenodd" d="M24.8412 40.5464C23.1358 40.5084 21.4263 41.4933 20.8711 43.0264C20.7325 43.4091 20.6561 43.91 20.6034 44.3669C20.5459 44.8648 20.5014 45.4617 20.4669 46.1134C20.3977 47.419 20.3654 49.0072 20.3585 50.5865C20.345 53.7052 20.43 56.9518 20.55 57.958C20.7602 59.7204 21.837 61.3619 22.7739 62.7902L22.8782 62.9493C23.1624 63.3832 23.4438 63.8129 23.7196 64.2574C24.9576 66.2533 26.3051 67.598 27.5258 68.8162L27.5534 68.8438C28.2393 69.5283 28.8748 70.1644 29.476 70.8743C28.9146 71.4289 28.57 72.1797 28.57 73.0061V76.0976C28.57 77.805 30.0407 79.1891 31.8551 79.1891H44.9957C46.8101 79.1891 48.2808 77.805 48.2808 76.0976V73.0061C48.2808 71.3716 46.9329 70.0333 45.226 69.922C45.0037 68.1663 44.7161 65.7948 44.6898 65.1195C44.667 64.5388 44.46 63.971 44.2672 63.5396C44.0617 63.08 43.8048 62.6295 43.5668 62.2474C43.3265 61.8612 43.09 61.5202 42.9145 61.2766C42.8263 61.1542 42.7523 61.0546 42.6992 60.9843C42.6728 60.9491 42.6512 60.9213 42.636 60.9013L42.6176 60.8773L42.612 60.8701L42.609 60.8664L42.5915 60.844L37.2646 54.5226L37.2161 54.4745L37.2148 54.4733L37.2078 54.466L37.1693 54.4269C37.1342 54.3906 37.0803 54.3343 37.012 54.2609C36.875 54.1138 36.6816 53.8992 36.4637 53.6375C36.0187 53.1032 35.5103 52.419 35.1555 51.7355C34.7807 51.0136 34.0718 50.319 32.9826 50.2672C32.0532 50.2228 31.3264 50.6861 30.9019 51.043C30.6771 51.2319 30.4635 51.4525 30.2674 51.6947C30.2423 51.3957 30.2176 51.0852 30.1922 50.7638L30.1841 50.663C30.023 48.6245 29.828 46.1593 29.1918 44.1862C28.4469 41.8756 26.79 40.5898 24.8412 40.5464ZM41.2863 61.7829L42.609 60.8664C42.6089 60.8662 42.6087 60.8661 41.2863 61.7829ZM41.9167 69.9146C41.703 68.2149 41.4366 65.993 41.4068 65.233C41.4062 65.2272 41.4014 65.1843 41.376 65.0972C41.3479 65.0019 41.3032 64.8818 41.2391 64.7383C41.1097 64.4488 40.9292 64.1262 40.7324 63.8101C40.5382 63.4982 40.3429 63.2162 40.1953 63.0114C40.122 62.9095 40.0617 62.8286 40.0208 62.7743L39.9778 62.7179L34.7748 56.5435L34.7441 56.5122C34.6946 56.4611 34.6253 56.3888 34.5406 56.2978C34.3715 56.1161 34.1391 55.858 33.8779 55.5445C33.5105 55.1032 33.0663 54.5286 32.661 53.8861L32.6504 53.9042C32.5018 54.1612 32.4202 54.3971 32.3949 54.5517C32.3053 55.1001 32.3517 55.4771 32.3973 55.6816C32.4205 55.7857 32.4446 55.8498 32.4543 55.8736L32.4561 55.8779L35.4638 61.5009L32.6695 63.1066L32.6294 63.055L32.5154 62.9074C32.4169 62.7796 32.2753 62.5955 32.102 62.369C31.7556 61.9164 31.282 61.2933 30.7738 60.6127C29.7768 59.277 28.5849 57.6384 27.9964 56.6562C27.556 55.9212 27.3522 54.9483 27.2224 54.0694C27.0869 53.1509 27.0025 52.0847 26.9188 51.0274L26.9161 50.9935C26.745 48.8324 26.5676 46.6948 26.0482 45.0837C25.8213 44.3797 25.5294 44.0257 25.3188 43.8543C25.1181 43.6908 24.9298 43.6407 24.7633 43.637C24.3153 43.6271 24.0182 43.9205 23.9804 44.0247C23.9776 44.0346 23.9623 44.0874 23.9411 44.2016C23.9176 44.3279 23.8932 44.4938 23.8693 44.7009C23.8215 45.1152 23.7809 45.6461 23.748 46.2674C23.6823 47.5072 23.6504 49.0436 23.6437 50.5992C23.6299 53.7507 23.7196 56.8157 23.8147 57.6133C23.9336 58.6107 24.5926 59.6751 25.6748 61.3272L25.679 61.3337C25.959 61.7611 26.2594 62.2197 26.5567 62.6989C27.5958 64.3738 28.7168 65.4987 29.9435 66.7229L29.9704 66.7498C30.885 67.6624 31.8763 68.6517 32.8127 69.9146H41.9167ZM33.1693 53.2914C33.1693 53.2908 33.1633 53.2937 33.1509 53.3019C33.1631 53.2961 33.1693 53.2919 33.1693 53.2914ZM44.9957 76.0976V73.0061H31.8551V76.0976H44.9957Z" fill="#373B32"/>
<path fill-rule="evenodd" clip-rule="evenodd" d="M78.9757 43.0264C78.4205 41.4933 76.7111 40.5084 75.0056 40.5464C73.0569 40.5898 71.3999 41.8756 70.655 44.1862C70.019 46.1593 69.824 48.6243 69.6627 50.6629L69.6546 50.7638C69.6293 51.0852 69.6047 51.3957 69.5796 51.6947C69.3833 51.4525 69.1697 51.2319 68.945 51.043C68.5206 50.6861 67.7936 50.2228 66.8644 50.2672C65.775 50.319 65.0663 51.0136 64.6914 51.7355C64.3365 52.419 63.8281 53.1032 63.3833 53.6375C63.1653 53.8992 62.972 54.1138 62.8348 54.2609C62.7667 54.3343 62.7128 54.3906 62.6775 54.4269L62.6392 54.466L62.632 54.4733L62.6307 54.4745L62.5824 54.5226L57.2555 60.844L57.2378 60.8664L57.235 60.8701L57.2292 60.8773L57.2108 60.9013C57.1956 60.9213 57.1742 60.9491 57.1476 60.9843C57.0945 61.0546 57.0206 61.1542 56.9323 61.2766C56.7568 61.5202 56.5205 61.8612 56.28 62.2474C56.0422 62.6295 55.7851 63.08 55.5796 63.5396C55.3868 63.971 55.1798 64.5388 55.1571 65.1195C55.1307 65.7948 54.8431 68.1663 54.6208 69.922C52.914 70.0333 51.566 71.3716 51.566 73.0061V76.0976C51.566 77.805 53.0369 79.1891 54.8511 79.1891H67.9917C69.8061 79.1891 71.2768 77.805 71.2768 76.0976V73.0061C71.2768 72.1797 70.9322 71.4289 70.371 70.8743C70.9721 70.1644 71.6075 69.5283 72.2934 68.8438L72.3212 68.8162C73.5418 67.598 74.8892 66.2532 76.1273 64.2574C76.4031 63.8129 76.6845 63.3832 76.9687 62.9493L77.073 62.7902C78.0099 61.3619 79.0868 59.7204 79.2969 57.958C79.4169 56.9518 79.5018 53.7052 79.4884 50.5865C79.4815 49.0072 79.4491 47.419 79.38 46.1134C79.3455 45.4617 79.301 44.8648 79.2435 44.3669C79.1908 43.91 79.1144 43.4091 78.9757 43.0264ZM58.5607 61.7829C57.2381 60.8661 57.2379 60.8662 57.2378 60.8664L58.5607 61.7829ZM67.0342 69.9146C67.9707 68.6517 68.9618 67.6624 69.8764 66.7498L69.9033 66.7229C71.13 65.4987 72.251 64.3738 73.2901 62.6989C73.5873 62.22 73.8874 61.7618 74.1673 61.3346L74.172 61.3272C75.2543 59.6751 75.9133 58.6107 76.0322 57.6133C76.1274 56.8157 76.2169 53.7507 76.2032 50.5992C76.1965 49.0436 76.1646 47.5072 76.0989 46.2674C76.0659 45.6461 76.0254 45.1152 75.9776 44.7009C75.9536 44.4938 75.9293 44.3279 75.9058 44.2016C75.8846 44.0874 75.8693 44.0346 75.8665 44.0247C75.8287 43.9205 75.5316 43.6271 75.0835 43.637C74.9171 43.6407 74.7289 43.6908 74.528 43.8543C74.3174 44.0257 74.0255 44.3797 73.7987 45.0837C73.2793 46.6948 73.1019 48.8324 72.9307 50.9935L72.9281 51.0274C72.8443 52.0847 72.7601 53.1509 72.6244 54.0694C72.4948 54.9483 72.2908 55.9212 71.8504 56.6562C71.2621 57.6384 70.0702 59.277 69.073 60.6127C68.5648 61.2933 68.0912 61.9164 67.745 62.369C67.5717 62.5955 67.4299 62.7796 67.3314 62.9074L67.2174 63.055L67.1773 63.1066L64.383 61.5009L67.3907 55.8779L67.3926 55.8736C67.4023 55.8498 67.4263 55.7857 67.4495 55.6816C67.4951 55.4771 67.5415 55.1001 67.4519 54.5517C67.4268 54.3971 67.345 54.1612 67.1964 53.9042L67.1858 53.8861C66.7805 54.5286 66.3363 55.1032 65.9689 55.5445C65.7079 55.858 65.4753 56.1161 65.3063 56.2978C65.2217 56.3888 65.1523 56.4611 65.1027 56.5122L65.072 56.5435L59.869 62.7179L59.8261 62.7743C59.7852 62.8286 59.7248 62.9095 59.6515 63.0114C59.5039 63.2162 59.3087 63.4982 59.1144 63.8101C58.9178 64.1262 58.7371 64.4488 58.6078 64.7383C58.5436 64.8818 58.4989 65.0019 58.471 65.0972C58.4454 65.1843 58.4408 65.2272 58.4401 65.233C58.4104 65.993 58.1438 68.2149 57.9301 69.9146H67.0342ZM66.6775 53.2914C66.6775 53.2908 66.6836 53.2937 66.6959 53.3019C66.6837 53.2961 66.6776 53.2919 66.6775 53.2914ZM54.8511 76.0976V73.0061H67.9917V76.0976H54.8511Z" fill="#373B32"/>
</svg>
