<svg width="56" height="46" viewBox="0 0 56 46" fill="none" xmlns="http://www.w3.org/2000/svg">
<path d="M23.625 44.3234C23.3228 44.3232 23.0258 44.2599 22.7628 44.1395L7.88778 37.3277C7.61836 37.2044 7.39424 37.0255 7.23828 36.8093C7.08232 36.5931 7.00009 36.3473 7 36.0971V21.9501C7.00006 21.6998 7.08227 21.454 7.23824 21.2378C7.3942 21.0216 7.61834 20.8427 7.88778 20.7193L22.7628 13.9076C23.0258 13.7874 23.3228 13.7242 23.625 13.7242C23.9272 13.7242 24.2242 13.7874 24.4872 13.9076L39.3622 20.7193C39.6317 20.8427 39.8558 21.0216 40.0118 21.2378C40.1677 21.454 40.2499 21.6998 40.25 21.9501V36.0971C40.2499 36.3474 40.1677 36.5932 40.0118 36.8094C39.8558 37.0256 39.6317 37.2045 39.3622 37.3279L24.4872 44.1396C24.2242 44.26 23.9272 44.3233 23.625 44.3234ZM10.5 35.2723L23.625 41.2826L36.75 35.2723V22.7749L23.625 16.7645L10.5 22.7749V35.2723Z" fill="black"/>
<path d="M49 24.7795H45.5V11.4573L32.375 5.44701L18.3622 11.8634L16.6378 9.40179L31.5128 2.59003C31.7758 2.46984 32.0729 2.40668 32.375 2.40668C32.6772 2.40668 32.9742 2.46984 33.2372 2.59003L48.1122 9.40179C48.3817 9.52512 48.6058 9.70402 48.7618 9.92025C48.9177 10.1365 49 10.3823 49 10.6326V24.7795Z" fill="black"/>
</svg>
