<svg width="101" height="113" viewBox="0 0 101 113" fill="none" xmlns="http://www.w3.org/2000/svg">
<path d="M50.5 18.5693C22.6028 18.5693 0 39.702 0 65.7846C0 91.8673 22.6028 113 50.5 113C78.3972 113 101 91.8673 101 65.7846C101 39.702 78.3972 18.5693 50.5 18.5693Z" fill="#D9E4D9"/>
<path d="M65.358 44.6257C65.5684 47.1992 64.2007 49.4218 62.5174 49.5388C60.8341 49.6558 59.2559 47.6671 59.0455 45.0936C58.8351 42.52 60.2028 40.2974 61.8861 40.1804C63.5695 40.0635 65.1476 42.0521 65.358 44.6257ZM68.3038 42.52C67.1466 42.637 66.3049 44.2747 66.4101 46.1464C66.5153 48.0181 67.5674 49.6558 68.7247 49.5388C69.882 49.4218 70.7236 47.7841 70.6184 45.9124C70.5132 44.0408 69.4611 42.4031 68.3038 42.52ZM72.8278 45.2106C71.9861 45.0936 71.2497 46.2634 71.1445 47.6671C71.0393 49.0709 71.7757 50.3576 72.6174 50.3576C73.4591 50.3576 74.1955 49.3048 74.3007 47.9011C74.4059 46.4973 73.6695 45.2106 72.8278 45.2106ZM76.6153 47.1992C75.8788 47.0822 75.0372 48.0181 74.8268 49.3048C74.6837 49.8025 74.7122 50.3415 74.9066 50.8171C75.1011 51.2927 75.4476 51.671 75.8788 51.8784C76.6153 51.9954 77.3518 51.0595 77.5622 49.7727C77.6911 49.288 77.6675 48.7689 77.4954 48.301C77.3232 47.8332 77.0128 47.4445 76.6153 47.1992ZM79.7716 50.1237C79.1403 50.0067 78.5091 50.7086 78.4038 51.6444C78.2815 52.0055 78.2778 52.4029 78.3933 52.7668C78.5088 53.1306 78.7361 53.4374 79.0351 53.6331C79.6663 53.75 80.1924 53.0482 80.4028 52.1123C80.5251 51.7513 80.5289 51.3538 80.4134 50.99C80.2979 50.6262 80.0706 50.3194 79.7716 50.1237ZM65.358 51.8784C63.2538 51.8784 59.0455 53.0482 60.0976 58.8971C61.1497 64.7461 68.5143 67.0857 68.5143 71.7649C68.5143 76.444 65.358 77.6138 63.2538 82.293C61.1497 86.9722 63.2538 90.4816 66.4101 91.6514C68.0847 92.1349 69.8602 91.9272 71.4077 91.0669C72.9552 90.2066 74.1699 88.7519 74.8268 86.9722C75.8788 83.4628 74.1955 82.059 75.8788 76.444C76.9309 72.9347 79.0351 71.7649 80.0872 64.7461C81.5601 55.2708 72.7226 51.8784 65.358 51.8784Z" fill="black"/>
<path d="M0 4.94178C0 2.36751 2.49279 0.261292 5.53954 0.261292H38.7768C40.246 0.261292 41.655 0.754413 42.6938 1.63218C43.7327 2.50994 44.3163 3.70044 44.3163 4.94178V42.3857C44.3163 43.6271 43.7327 44.8176 42.6938 45.6953C41.655 46.5731 40.246 47.0662 38.7768 47.0662H5.53954C4.07036 47.0662 2.66136 46.5731 1.62249 45.6953C0.583628 44.8176 0 43.6271 0 42.3857V4.94178ZM8.30931 7.28203V11.9625H36.007V7.28203H8.30931ZM8.30931 16.643V21.3235H13.8489V16.643H8.30931ZM19.3884 16.643V21.3235H24.9279V16.643H19.3884ZM30.4675 16.643V21.3235H36.007V16.643H30.4675ZM8.30931 26.004V30.6845H13.8489V26.004H8.30931ZM19.3884 26.004V30.6845H24.9279V26.004H19.3884ZM30.4675 26.004V40.0455H36.007V26.004H30.4675ZM8.30931 35.365V40.0455H13.8489V35.365H8.30931ZM19.3884 35.365V40.0455H24.9279V35.365H19.3884Z" fill="#A7CF7F"/>
</svg>
