<svg width="38" height="40" viewBox="0 0 38 40" fill="none" xmlns="http://www.w3.org/2000/svg">
<g clip-path="url(#clip0_23_214)">
<path d="M37.9799 20.3741C37.9799 18.7353 37.8507 17.5395 37.5709 16.2993H19.3785V23.696H30.057C29.8418 25.5341 28.6792 28.3024 26.0956 30.1625L26.0594 30.4102L31.8115 34.9938L32.21 35.0347C35.87 31.5578 37.9799 26.4421 37.9799 20.3741Z" fill="#4285F4"/>
<path d="M19.3785 39.8626C24.6101 39.8626 29.002 38.0908 32.21 35.0348L26.0956 30.1626C24.4594 31.3363 22.2634 32.1557 19.3785 32.1557C14.2545 32.1557 9.90558 28.6789 8.35531 23.8733L8.12807 23.8931L2.14696 28.6545L2.06874 28.8782C5.25507 35.389 11.8 39.8626 19.3785 39.8626Z" fill="#34A853"/>
<path d="M8.35531 23.8732C7.94626 22.633 7.70952 21.3042 7.70952 19.9312C7.70952 18.558 7.94626 17.2293 8.33379 15.9892L8.32295 15.7251L2.26688 10.8872L2.06874 10.9842C0.755499 13.686 0.0019598 16.72 0.0019598 19.9312C0.0019598 23.1423 0.755499 26.1762 2.06874 28.878L8.35531 23.8732Z" fill="#FBBC05"/>
<path d="M19.3785 7.70672C23.0169 7.70672 25.4712 9.32336 26.8707 10.6744L32.3391 5.18214C28.9807 1.97099 24.6101 0 19.3785 0C11.8 0 5.25507 4.47343 2.06874 10.9843L8.33379 15.9893C9.90558 11.1837 14.2545 7.70672 19.3785 7.70672Z" fill="#EB4335"/>
</g>
<defs>
<clipPath id="clip0_23_214">
<rect width="38" height="40" fill="white"/>
</clipPath>
</defs>
</svg>
