<svg width="51" height="45" viewBox="0 0 51 45" fill="none" xmlns="http://www.w3.org/2000/svg">
<path d="M27.239 13.7757C28.0118 12.639 29.8321 11.2102 32.4201 9.67877C34.9324 8.19221 37.9393 6.73666 40.8513 5.45124C43.7583 4.16834 46.5445 3.06666 48.6059 2.28508C49.0283 2.12503 49.4197 1.97859 49.7755 1.84677C49.7056 2.36901 49.6266 2.94997 49.5396 3.58007C49.1494 6.40951 48.5961 10.2267 47.9439 14.1863C47.2905 18.1527 46.5429 22.2305 45.766 25.5925C45.3771 27.2752 44.9878 28.7471 44.6079 29.9226C44.2141 31.1413 43.8797 31.8823 43.6423 32.2316C43.2362 32.8289 42.3493 33.3164 40.8204 33.448C39.354 33.5742 37.6058 33.3466 35.8775 32.9555C34.1625 32.5676 32.5345 32.035 31.3298 31.5962C30.7293 31.3777 30.238 31.1839 29.8987 31.0455C29.8961 31.0442 29.8934 31.0432 29.8906 31.0422C29.722 30.6626 29.4851 30.1139 29.2124 29.438C28.658 28.0636 27.9658 26.1868 27.3975 24.1493C26.8246 22.0959 26.4042 19.9717 26.3411 18.0794C26.278 16.1792 26.5797 14.7456 27.239 13.7757Z" fill="#A7CF7F" stroke="#60754B" stroke-width="1.37493"/>
<path d="M41.9808 12.3127C41.9808 12.3127 28.6049 27.1442 24.2455 43.7193L41.9808 12.3127Z" fill="#A7CF7F"/>
<path d="M41.9808 12.3127C41.9808 12.3127 28.6049 27.1442 24.2455 43.7193" stroke="#60754B" stroke-width="1.83324" stroke-linecap="round" stroke-linejoin="round"/>
<path d="M17.3918 21.7499C16.8772 20.9847 15.5969 19.9503 13.6738 18.8005C11.8262 17.6958 9.60844 16.6103 7.45282 15.649C5.30229 14.6897 3.24013 13.8658 1.71378 13.281C1.61641 13.2437 1.52139 13.2074 1.42853 13.1721C1.45243 13.3496 1.47731 13.5336 1.50337 13.7236C1.79253 15.8425 2.20238 18.7002 2.6855 21.6632C3.1696 24.6333 3.72207 27.678 4.29491 30.1823C4.58173 31.4359 4.86659 32.5233 5.14184 33.384C5.4312 34.2886 5.6612 34.7851 5.79638 34.986C5.99582 35.2824 6.52126 35.6335 7.62561 35.7295C8.66865 35.8202 9.93052 35.6569 11.1996 35.3668C12.4552 35.08 13.6501 34.685 14.5362 34.3589C14.9032 34.2238 15.2145 34.1018 15.4517 34.0055C15.5671 33.7394 15.7132 33.3923 15.8774 32.9812C16.2841 31.962 16.7906 30.574 17.2055 29.0713C17.6246 27.5525 17.9245 26.0079 17.9692 24.6527C18.014 23.2881 17.7956 22.35 17.3918 21.7499Z" fill="#A7CF7F" stroke="#60754B" stroke-width="1.37493"/>
<path d="M7.84778 21.979C7.84778 21.979 16.6413 31.4906 19.1407 42.6735L7.84778 21.979Z" fill="#A7CF7F"/>
<path d="M7.84778 21.979C7.84778 21.979 16.6413 31.4906 19.1407 42.6735" stroke="#60754B" stroke-width="1.83324" stroke-linecap="round" stroke-linejoin="round"/>
</svg>
