<svg width="51" height="23" viewBox="0 0 51 23" fill="none" xmlns="http://www.w3.org/2000/svg">
<path d="M9.75728 4.53796H8.14717V6.9069L10.2909 6.12189L9.75728 4.53796ZM19.825 2.38642L20.1711 0.746917L20.1431 0.740369L20.1148 0.734996L19.825 2.38642ZM29.0298 4.49918L29.5128 2.89761L29.4452 2.87545L29.376 2.85967L29.0298 4.49918ZM30.4203 10.3256L30.5042 8.64897L30.4718 8.6473L30.4394 8.64696L30.4203 10.3256ZM22.9891 10.2336L23.0083 8.55496L22.7056 11.8862L22.9891 10.2336ZM9.75728 17.3844L9.70189 15.7066L8.14717 15.7625V17.3844H9.75728ZM9.75728 20.5848V22.2636H11.3674V20.5848H9.75728ZM1.88562 20.5848H0.275513V22.2636H1.88562V20.5848ZM1.88562 2.11815V0.439362H0.275513V2.11815H1.88562ZM9.75728 2.11815H11.3674V0.439362H9.75728V2.11815ZM14.709 0.853855C13.9659 1.20053 11.2234 2.22156 9.22369 2.95402L10.2909 6.12189C12.2083 5.41966 15.1244 4.33835 16.0238 3.91899L14.709 0.853855ZM19.825 2.38642C20.1148 0.734996 20.1149 0.734996 20.1148 0.734996C20.1146 0.734996 20.1151 0.735164 20.1148 0.734996C20.1145 0.734996 20.1132 0.73466 20.1127 0.73466C20.1117 0.734492 20.1106 0.734326 20.1093 0.73399C20.1067 0.733487 20.1035 0.732982 20.0993 0.732143C20.0911 0.730632 20.08 0.728617 20.066 0.725931C20.0378 0.720895 19.9984 0.713843 19.9488 0.705281C19.8496 0.688157 19.7094 0.66516 19.5379 0.639643C19.1969 0.588775 18.7243 0.527329 18.2031 0.486031C17.6867 0.445237 17.0931 0.421736 16.518 0.455647C15.975 0.487712 15.3014 0.577695 14.709 0.853855L16.0238 3.91899C16.0787 3.8933 16.2859 3.83236 16.7004 3.80785C17.0825 3.78536 17.5227 3.79946 17.9592 3.83404C18.3908 3.86829 18.7901 3.91999 19.0829 3.96347C19.2284 3.98513 19.3453 4.00444 19.4244 4.01804C19.4637 4.02475 19.4934 4.03012 19.5124 4.03365C19.5219 4.03533 19.5285 4.0365 19.5324 4.03734C19.5343 4.03768 19.5356 4.03785 19.5361 4.03801C19.5359 4.03801 19.5363 4.03818 19.5361 4.03801C19.5359 4.03801 19.5353 4.03784 19.825 2.38642ZM29.376 2.85967L20.1711 0.746917L19.4789 4.02593L28.6836 6.13868L29.376 2.85967ZM33.4883 3.57484C32.5698 3.57484 31.5791 3.41166 30.7872 3.23488C30.3982 3.14792 30.0722 3.06129 29.8456 2.99716C29.7328 2.9651 29.6453 2.93874 29.5882 2.92128C29.5595 2.91238 29.5386 2.90584 29.5259 2.90181C29.5194 2.8998 29.5149 2.89845 29.5128 2.89761C29.5127 2.89761 29.513 2.89761 29.5128 2.89761C29.513 2.89761 29.5128 2.89761 29.0298 4.49918C28.5468 6.10057 28.5471 6.10074 28.5472 6.10074C28.5471 6.10074 28.5474 6.10074 28.5472 6.10074C28.5476 6.10091 28.5484 6.10108 28.5488 6.10125C28.5497 6.10158 28.5506 6.10192 28.5517 6.10225C28.554 6.10292 28.5567 6.10376 28.5601 6.10494C28.5667 6.10712 28.5756 6.10981 28.5865 6.11333C28.6086 6.12038 28.6392 6.12995 28.6777 6.14187C28.7548 6.16554 28.8641 6.19828 29.0005 6.23689C29.2729 6.31428 29.6569 6.41619 30.1131 6.51792C31.011 6.71854 32.2497 6.93241 33.4883 6.93241V3.57484ZM33.8372 10.703C34.8696 9.94853 35.7726 8.59878 36.1038 7.33918C36.2656 6.72374 36.3793 5.78899 35.9185 4.92559C35.3818 3.92033 34.3931 3.57484 33.4883 3.57484V6.93241C33.5856 6.93241 33.5479 6.95038 33.4431 6.89766C33.3196 6.83572 33.19 6.71837 33.1046 6.55838C32.9638 6.2943 33.0694 6.18032 32.9981 6.45178C32.9407 6.67002 32.8055 6.97254 32.5968 7.28294C32.3878 7.59352 32.1629 7.82637 31.989 7.95345L33.8372 10.703ZM30.4203 10.3256C30.3365 12.002 30.3374 12.0022 30.3382 12.0022C30.3393 12.0024 30.342 12.0024 30.3431 12.0024C30.3456 12.0025 30.3478 12.0027 30.3502 12.0027C30.3552 12.003 30.3604 12.0032 30.3657 12.0034C30.3766 12.0039 30.3886 12.0042 30.4016 12.0044C30.4277 12.0049 30.4581 12.005 30.4927 12.0045C30.5618 12.0035 30.6475 11.9995 30.7484 11.9903C30.9503 11.9718 31.2124 11.9315 31.5229 11.8493C32.1473 11.6834 32.9502 11.3512 33.8372 10.703L31.989 7.95345C31.433 8.35972 30.9894 8.52609 30.7283 8.59542C30.5959 8.63051 30.5054 8.64209 30.4654 8.64579C30.4452 8.64763 30.4377 8.64746 30.4438 8.6473C30.4468 8.6473 30.4533 8.64729 30.4633 8.64746C30.4683 8.64763 30.4742 8.6478 30.481 8.64797C30.4844 8.64814 30.4879 8.6483 30.4918 8.64847C30.4937 8.64847 30.4958 8.64864 30.4977 8.64864C30.4988 8.64881 30.4998 8.64881 30.5009 8.64881C30.5014 8.64898 30.5038 8.64897 30.5042 8.64897C30.505 8.64897 30.5042 8.64898 30.4203 10.3256ZM22.97 11.9122L30.4016 12.0044L30.4394 8.64696L23.0083 8.55496L22.97 11.9122ZM32.0014 9.91596C30.8734 9.84629 28.7255 9.52178 26.7851 9.19827C25.831 9.03929 24.952 8.88484 24.3112 8.77001C23.9911 8.7126 23.7308 8.66526 23.5507 8.63236C23.4607 8.6159 23.3909 8.60297 23.3437 8.59424C23.3202 8.58988 23.3021 8.58652 23.2902 8.58434C23.2843 8.58317 23.2798 8.58233 23.2769 8.58182C23.2754 8.58149 23.2743 8.58132 23.2736 8.58115C23.2733 8.58115 23.2738 8.58115 23.2736 8.58115C23.2736 8.58115 23.2727 8.58098 22.9891 10.2336C22.7056 11.8862 22.7054 11.8862 22.7056 11.8862C22.7051 11.8862 22.7058 11.8864 22.7056 11.8862C22.7066 11.8864 22.7091 11.8869 22.7109 11.8872C22.7141 11.8877 22.719 11.8887 22.7254 11.8899C22.7381 11.8922 22.7568 11.8956 22.7811 11.9001C22.8301 11.9092 22.9016 11.9224 22.9933 11.9392C23.1769 11.9728 23.4413 12.021 23.766 12.0791C24.4152 12.1954 25.3071 12.3522 26.2767 12.5139C28.1837 12.8317 30.4942 13.1864 31.8112 13.2677L32.0014 9.91596ZM37.0425 8.22256C35.841 8.72687 34.7684 9.17628 33.8448 9.49391C32.8718 9.82849 32.2877 9.93359 32.0014 9.91596L31.8112 13.2677C32.7635 13.3264 33.8608 13.0239 34.8534 12.6826C35.8953 12.3242 37.072 11.8296 38.2451 11.3372L37.0425 8.22256ZM44.4488 5.70925C42.0353 6.1177 39.3048 7.27287 37.0425 8.22256L38.2451 11.3372C40.6082 10.3452 42.9783 9.35961 44.9647 9.02351L44.4488 5.70925ZM49.5883 13.3788C50.8649 12.0393 51.0538 9.82984 50.2151 8.15508C49.2656 6.25922 47.1986 5.24389 44.4488 5.70925L44.9647 9.02351C46.6735 8.73426 47.1953 9.37908 47.3605 9.70896C47.6365 10.2601 47.4658 10.8425 47.3042 11.012L49.5883 13.3788ZM34.033 21.7732C35.1435 21.3571 38.6078 19.6889 41.9005 17.9804C43.5655 17.1163 45.2259 16.2217 46.5685 15.4425C47.2387 15.0536 47.8442 14.6851 48.3376 14.3577C48.7947 14.0543 49.2695 13.7132 49.5883 13.3788L47.3042 11.012C47.3063 11.0097 47.2931 11.0236 47.2572 11.0547C47.2224 11.0846 47.1747 11.1233 47.1119 11.1714C46.9854 11.2679 46.8181 11.3861 46.6088 11.5251C46.1897 11.8031 45.6446 12.136 45.0024 12.5087C43.7202 13.2527 42.1085 14.1218 40.4656 14.9745C37.1423 16.6989 33.8469 18.2752 32.9438 18.6136L34.033 21.7732ZM27.6939 22.0376C29.7307 22.247 32.0436 22.5188 34.033 21.7732L32.9438 18.6136C31.7794 19.0499 30.2775 18.9294 28.0099 18.6962L27.6939 22.0376ZM25.8901 21.8676C26.4993 21.9149 27.0952 21.976 27.6939 22.0376L28.0099 18.6962C27.4166 18.6353 26.7829 18.5699 26.1289 18.5192L25.8901 21.8676ZM19.1946 20.3584C21.0966 20.9768 23.1741 21.6571 25.8901 21.8676L26.1289 18.5192C23.818 18.3401 22.0543 17.7712 20.1534 17.153L19.1946 20.3584ZM12.8579 19.0037C15.3237 19.1053 17.1593 19.6964 19.1946 20.3584L20.1534 17.153C18.1131 16.4894 15.9174 15.7696 12.9851 15.6487L12.8579 19.0037ZM9.81266 19.0622C11.1101 19.0157 12.3668 18.9834 12.8579 19.0037L12.9851 15.6487C12.3473 15.6225 10.9518 15.6618 9.70189 15.7066L9.81266 19.0622ZM8.14717 17.3844V20.5848H11.3674V17.3844H8.14717ZM9.75728 18.906H1.88562V22.2636H9.75728V18.906ZM3.49573 20.5848V2.11815H0.275513V20.5848H3.49573ZM1.88562 3.79694H9.75728V0.439362H1.88562V3.79694ZM8.14717 2.11815V4.53796H11.3674V2.11815H8.14717Z" fill="#373B32"/>
</svg>
